<svg width="271" height="130" viewBox="0 0 271 130" fill="none" xmlns="http://www.w3.org/2000/svg">
<g clip-path="url(#clip0)">
<path d="M155.932 22.9997C155.565 22.5832 154.881 22.5003 154.399 22.8196L131.43 38.0695C130.951 38.3888 130.858 38.9874 131.223 39.4058C131.439 39.6517 131.765 39.7813 132.095 39.7813C132.326 39.7813 132.559 39.7184 132.757 39.5859L155.725 24.336C156.204 24.0167 156.297 23.4181 155.932 22.9997Z" fill="#613116"/>
<path d="M155.932 26.8122C155.565 26.3947 154.881 26.3127 154.399 26.632L131.43 41.882C130.951 42.2013 130.858 42.7999 131.223 43.2183C131.439 43.4642 131.765 43.5938 132.095 43.5938C132.326 43.5938 132.559 43.5309 132.757 43.3984L155.725 28.1484C156.204 27.8292 156.297 27.2306 155.932 26.8122Z" fill="#613116"/>
<path d="M180.131 39.0236L155.726 22.8205C155.244 22.5012 154.559 22.5832 154.193 23.0006C153.828 23.4191 153.921 24.0176 154.4 24.3369L178.805 40.54C179.003 40.6715 179.236 40.7344 179.466 40.7344C179.796 40.7344 180.121 40.6048 180.338 40.3599C180.703 39.9414 180.61 39.3429 180.131 39.0236Z" fill="#613116"/>
<path d="M178.695 41.883L155.726 26.633C155.244 26.3137 154.559 26.3957 154.193 26.8131C153.828 27.2316 153.921 27.8301 154.4 28.1494L177.368 43.3994C177.566 43.5309 177.799 43.5938 178.03 43.5938C178.361 43.5938 178.686 43.4642 178.902 43.2192C179.267 42.8008 179.174 42.2023 178.695 41.883Z" fill="#613116"/>
<path d="M199.906 38.8282H179.467C178.863 38.8282 178.374 39.2542 178.374 39.7813C178.374 40.3084 178.863 40.7344 179.467 40.7344H199.906C200.511 40.7344 201 40.3084 201 39.7813C201 39.2542 200.511 38.8282 199.906 38.8282Z" fill="#613116"/>
<path d="M132.094 37.8751C131.489 37.8751 131 38.3011 131 38.8282V42.6407C131 43.1678 131.489 43.5938 132.094 43.5938C132.699 43.5938 133.188 43.1678 133.188 42.6407V38.8282C133.188 38.3011 132.699 37.8751 132.094 37.8751Z" fill="#613116"/>
<path d="M199.906 41.6876H178.031C177.426 41.6876 176.938 42.1136 176.938 42.6407C176.938 43.1678 177.426 43.5938 178.031 43.5938H199.906C200.511 43.5938 201 43.1678 201 42.6407C201 42.1136 200.511 41.6876 199.906 41.6876Z" fill="#613116"/>
<path d="M199.906 38.8282C199.301 38.8282 198.813 39.2542 198.813 39.7813V42.6407C198.813 43.1678 199.301 43.5938 199.906 43.5938C200.511 43.5938 201 43.1678 201 42.6407V39.7813C201 39.2542 200.511 38.8282 199.906 38.8282Z" fill="#613116"/>
<path d="M134.281 40.236C133.677 40.236 133.188 40.662 133.188 41.1891V67.4219C133.188 67.949 133.677 68.375 134.281 68.375C134.886 68.375 135.375 67.949 135.375 67.4219V41.1891C135.375 40.662 134.886 40.236 134.281 40.236Z" fill="#613116"/>
<path d="M175.844 40.236C175.239 40.236 174.75 40.662 174.75 41.1891V67.4219C174.75 67.949 175.239 68.375 175.844 68.375C176.449 68.375 176.938 67.949 176.938 67.4219V41.1891C176.938 40.662 176.449 40.236 175.844 40.236Z" fill="#613116"/>
<path d="M197.719 41.6876C197.114 41.6876 196.625 42.1136 196.625 42.6407V67.4219C196.625 67.949 197.114 68.375 197.719 68.375C198.324 68.375 198.813 67.949 198.813 67.4219V42.6407C198.813 42.1136 198.324 41.6876 197.719 41.6876Z" fill="#613116"/>
<path d="M200.837 39.2809L192.087 26.8903C191.771 26.4414 191.098 26.3023 190.582 26.5787C190.068 26.8541 189.908 27.4412 190.224 27.8902L198.974 40.2808C199.181 40.5734 199.54 40.7345 199.907 40.7345C200.103 40.7345 200.3 40.6887 200.479 40.5924C200.993 40.317 201.153 39.7299 200.837 39.2809Z" fill="#613116"/>
<path d="M191.156 26.4376H160.805C160.2 26.4376 159.711 26.8636 159.711 27.3907C159.711 27.9178 160.2 28.3438 160.805 28.3438H191.156C191.761 28.3438 192.25 27.9178 192.25 27.3907C192.25 26.8636 191.761 26.4376 191.156 26.4376Z" fill="#613116"/>
<path d="M155.063 36.922C152.047 36.922 149.594 39.0598 149.594 41.6876C149.594 44.3153 152.047 46.4532 155.063 46.4532C158.078 46.4532 160.531 44.3153 160.531 41.6876C160.531 39.0598 158.078 36.922 155.063 36.922ZM155.063 44.5469C153.254 44.5469 151.781 43.264 151.781 41.6876C151.781 40.1111 153.254 38.8282 155.063 38.8282C156.872 38.8282 158.344 40.1111 158.344 41.6876C158.344 43.264 156.872 44.5469 155.063 44.5469Z" fill="#613116"/>
<path d="M151.781 55.0313C151.176 55.0313 150.688 55.4573 150.688 55.9844V67.4219C150.688 67.949 151.176 68.375 151.781 68.375C152.386 68.375 152.875 67.949 152.875 67.4219V55.9844C152.875 55.4573 152.386 55.0313 151.781 55.0313Z" fill="#613116"/>
<path d="M158.344 55.0313H151.781C151.176 55.0313 150.688 55.4573 150.688 55.9844C150.688 56.5115 151.176 56.9375 151.781 56.9375H158.344C158.949 56.9375 159.438 56.5115 159.438 55.9844C159.438 55.4573 158.949 55.0313 158.344 55.0313Z" fill="#613116"/>
<path d="M158.344 55.0313C157.739 55.0313 157.25 55.4573 157.25 55.9844V67.4219C157.25 67.949 157.739 68.375 158.344 68.375C158.949 68.375 159.438 67.949 159.438 67.4219V55.9844C159.438 55.4573 158.949 55.0313 158.344 55.0313Z" fill="#613116"/>
<path d="M147.406 50.2657H138.656C138.052 50.2657 137.563 50.6917 137.563 51.2188V58.8438C137.563 59.3709 138.052 59.7969 138.656 59.7969H147.406C148.011 59.7969 148.5 59.3709 148.5 58.8438V51.2188C148.5 50.6917 148.011 50.2657 147.406 50.2657ZM146.313 57.8907H139.75V52.1719H146.313V57.8907Z" fill="#613116"/>
<path d="M171.469 50.2657H162.719C162.114 50.2657 161.625 50.6917 161.625 51.2188V58.8438C161.625 59.3709 162.114 59.7969 162.719 59.7969H171.469C172.074 59.7969 172.563 59.3709 172.563 58.8438V51.2188C172.563 50.6917 172.074 50.2657 171.469 50.2657ZM170.375 57.8907H163.813V52.1719H170.375V57.8907Z" fill="#613116"/>
<path d="M191.156 50.2657H182.406C181.801 50.2657 181.313 50.6917 181.313 51.2188V58.8438C181.313 59.3709 181.801 59.7969 182.406 59.7969H191.156C191.761 59.7969 192.25 59.3709 192.25 58.8438V51.2188C192.25 50.6917 191.761 50.2657 191.156 50.2657ZM190.063 57.8907H183.5V52.1719H190.063V57.8907Z" fill="#613116"/>
<path d="M155.063 36.922C154.458 36.922 153.969 37.348 153.969 37.8751V45.5001C153.969 46.0271 154.458 46.4532 155.063 46.4532C155.667 46.4532 156.156 46.0271 156.156 45.5001V37.8751C156.156 37.348 155.667 36.922 155.063 36.922Z" fill="#613116"/>
<path d="M159.438 40.7345H150.688C150.083 40.7345 149.594 41.1605 149.594 41.6876C149.594 42.2146 150.083 42.6407 150.688 42.6407H159.438C160.042 42.6407 160.531 42.2146 160.531 41.6876C160.531 41.1605 160.042 40.7345 159.438 40.7345Z" fill="#613116"/>
<path d="M199.906 66.4688H132.094C131.489 66.4688 131 66.8948 131 67.4219C131 67.949 131.489 68.375 132.094 68.375H199.906C200.511 68.375 201 67.949 201 67.4219C201 66.8948 200.511 66.4688 199.906 66.4688Z" fill="#613116"/>
<path d="M192.167 34.0626H178.852C178.247 34.0626 177.758 34.4886 177.758 35.0157C177.758 35.5428 178.247 35.9688 178.852 35.9688H192.167C192.772 35.9688 193.261 35.5428 193.261 35.0157C193.261 34.4886 192.772 34.0626 192.167 34.0626Z" fill="#613116"/>
<path d="M189.474 30.2501H173.109C172.505 30.2501 172.016 30.6761 172.016 31.2032C172.016 31.7303 172.505 32.1563 173.109 32.1563H189.474C190.079 32.1563 190.568 31.7303 190.568 31.2032C190.568 30.6761 190.079 30.2501 189.474 30.2501Z" fill="#613116"/>
<path d="M147.406 53.125H138.656C138.052 53.125 137.563 53.5511 137.563 54.0782C137.563 54.6052 138.052 55.0313 138.656 55.0313H147.406C148.011 55.0313 148.5 54.6052 148.5 54.0782C148.5 53.5511 148.011 53.125 147.406 53.125Z" fill="#613116"/>
<path d="M191.156 53.125H182.406C181.801 53.125 181.313 53.5511 181.313 54.0782C181.313 54.6052 181.801 55.0313 182.406 55.0313H191.156C191.761 55.0313 192.25 54.6052 192.25 54.0782C192.25 53.5511 191.761 53.125 191.156 53.125Z" fill="#613116"/>
<path d="M171.469 53.125H162.719C162.114 53.125 161.625 53.5511 161.625 54.0782C161.625 54.6052 162.114 55.0313 162.719 55.0313H171.469C172.074 55.0313 172.563 54.6052 172.563 54.0782C172.563 53.5511 172.074 53.125 171.469 53.125Z" fill="#613116"/>
</g>
<path d="M11.016 64.814H28.08V68H5.13V34.412H11.016V64.814ZM53.3993 41.81H59.1773V68H53.3993V66.326C52.9313 67.442 51.9413 68 50.4293 68H37.9013C35.0573 68 33.6353 66.578 33.6353 63.734V41.81H39.4133V63.14C39.4133 63.86 39.5033 64.328 39.6833 64.544C39.8993 64.724 40.3673 64.814 41.0873 64.814H51.5633C52.2113 64.814 52.6793 64.688 52.9673 64.436C53.2553 64.148 53.3993 63.662 53.3993 62.978V41.81ZM83.5199 54.554L95.0219 68H88.3799L79.9019 58.118L70.9919 68H65.3759L77.0939 55.094L65.8079 41.81H72.5579L80.7659 51.638L89.2439 41.81H94.9139L83.5199 54.554ZM106.439 52.988H121.073V46.67C121.073 45.986 120.965 45.536 120.749 45.32C120.533 45.104 120.083 44.996 119.399 44.996H108.113C107.393 44.996 106.925 45.104 106.709 45.32C106.529 45.536 106.439 45.986 106.439 46.67V52.988ZM104.927 41.81H122.477C125.321 41.81 126.743 43.232 126.743 46.076V56.174H106.439V63.14C106.439 63.86 106.529 64.328 106.709 64.544C106.925 64.724 107.393 64.814 108.113 64.814H119.291C119.975 64.814 120.425 64.724 120.641 64.544C120.857 64.328 120.965 63.86 120.965 63.14V60.386H126.635V63.734C126.635 66.578 125.213 68 122.369 68H104.927C102.083 68 100.661 66.578 100.661 63.734V46.076C100.661 43.232 102.083 41.81 104.927 41.81Z" fill="#285454"/>
<path d="M35.328 80.192H42.368L26.944 120H17.472L2.112 80.192H9.216L22.208 115.264L35.328 80.192ZM57.364 120H50.516V88.96H57.364V120ZM50.388 83.008V77.12H57.556V83.008H50.388ZM76.239 120H69.455V77.184H76.239V120ZM95.1765 120H88.3925V77.184H95.1765V120ZM114.946 116.224H127.362C128.13 116.224 128.685 116.075 129.026 115.776C129.367 115.435 129.538 114.859 129.538 114.048V94.912C129.538 94.1013 129.367 93.5467 129.026 93.248C128.685 92.9067 128.13 92.736 127.362 92.736H114.946C114.093 92.736 113.538 92.864 113.282 93.12C113.069 93.376 112.962 93.9093 112.962 94.72V114.24C112.962 115.093 113.069 115.648 113.282 115.904C113.538 116.117 114.093 116.224 114.946 116.224ZM129.538 88.96H136.386V120H129.538V118.016C128.983 119.339 127.81 120 126.018 120H111.17C107.799 120 106.114 118.315 106.114 114.944V94.016C106.114 90.6453 107.799 88.96 111.17 88.96H126.018C127.81 88.96 128.983 89.6213 129.538 90.944V88.96ZM155.509 116.224H167.925C168.693 116.224 169.247 116.075 169.589 115.776C169.93 115.435 170.101 114.859 170.101 114.048V94.912C170.101 94.1013 169.93 93.5467 169.589 93.248C169.247 92.9067 168.693 92.736 167.925 92.736H155.509C154.655 92.736 154.101 92.864 153.845 93.12C153.631 93.376 153.525 93.9093 153.525 94.72V114.24C153.525 115.093 153.631 115.648 153.845 115.904C154.101 116.117 154.655 116.224 155.509 116.224ZM176.949 118.912H177.013V123.968C177.013 127.339 175.327 129.024 171.957 129.024H147.893V125.248H168.181C169.034 125.248 169.567 125.12 169.781 124.864C170.037 124.608 170.165 124.075 170.165 123.264V119.616H170.101V118.016C169.546 119.339 168.373 120 166.581 120H151.733C148.362 120 146.677 118.315 146.677 114.944V94.016C146.677 90.6453 148.362 88.96 151.733 88.96H166.581C168.373 88.96 169.546 89.6213 170.101 90.944V88.96H176.949V118.912ZM193.587 102.208H210.931V94.72C210.931 93.9093 210.803 93.376 210.547 93.12C210.291 92.864 209.758 92.736 208.947 92.736H195.571C194.718 92.736 194.163 92.864 193.907 93.12C193.694 93.376 193.587 93.9093 193.587 94.72V102.208ZM191.795 88.96H212.595C215.966 88.96 217.651 90.6453 217.651 94.016V105.984H193.587V114.24C193.587 115.093 193.694 115.648 193.907 115.904C194.163 116.117 194.718 116.224 195.571 116.224H208.819C209.63 116.224 210.163 116.117 210.419 115.904C210.675 115.648 210.803 115.093 210.803 114.24V110.976H217.523V114.944C217.523 118.315 215.838 120 212.467 120H191.795C188.424 120 186.739 118.315 186.739 114.944V94.016C186.739 90.6453 188.424 88.96 191.795 88.96Z" fill="#285454"/>
<g clip-path="url(#clip1)">
<path d="M220.756 24.639C222.164 22.6375 223 20.1942 223 17.5477C223 10.7931 217.606 5.3176 210.953 5.3176C210.854 5.3176 210.758 5.33016 210.66 5.33265C208.605 2.12529 205.05 0 201 0C196.302 0 192.268 2.85836 190.474 6.9519C183.273 8.86127 177.952 15.4894 177.952 23.3969C177.952 27.7445 179.572 31.6986 182.215 34.7065C182.169 35.1847 182.143 35.6685 182.143 36.1588C182.143 44.3817 188.709 51.0477 196.81 51.0477C197.692 51.0477 201.208 50.9678 202.048 50.8149L202.403 47.1299C204.478 48.2717 206.855 48.9207 209.381 48.9207C217.481 48.9207 224.048 42.2548 224.048 34.0318C224.048 30.4692 222.812 27.2016 220.756 24.639Z" fill="#74ADAD"/>
<path d="M202.048 45.4513C200.367 45.8915 198.506 45.8767 196.516 44.9228C193.822 43.6311 191.87 41.0057 191.605 37.9931C191.502 36.8097 191.64 35.6727 191.972 34.6237C192.103 34.2112 191.935 33.7731 191.605 33.4983C189.029 31.3539 187.381 28.1055 187.381 24.4602C187.381 19.7298 190.152 15.6664 194.132 13.8242C194.547 13.632 194.815 13.2129 194.769 12.7519C194.735 12.4052 194.714 12.0544 194.714 11.6983C194.714 6.15798 198.513 1.52818 203.607 0.31825C202.768 0.120391 201.899 0 201 0C196.302 0 192.268 2.85836 190.474 6.9519C183.273 8.86127 177.952 15.4894 177.952 23.3969C177.952 27.7445 179.572 31.6986 182.215 34.7065C182.169 35.1847 182.143 35.6685 182.143 36.1588C182.143 44.3817 188.709 51.0477 196.809 51.0477C197.692 51.0477 201.208 50.9678 202.048 50.8149V47.565V45.4513H202.048Z" fill="#285454"/>
<path d="M200 45.667C199.968 45.667 199.937 45.6618 199.905 45.6613L199 68H205L204.114 46.1427C204.083 45.3596 203.416 44.7951 202.792 45.0709C201.923 45.4548 200.983 45.667 200 45.667Z" fill="white"/>
<path d="M203.951 45.1426C203.914 44.3596 203.138 43.7951 202.412 44.0709C201.401 44.4548 200.308 44.6671 199.164 44.6671C199.126 44.6671 199.09 44.6619 199.053 44.6615L198 67H201.491V47.865C201.491 47.359 201.811 46.9099 202.287 46.7499L204 46.173L203.951 45.1426Z" fill="#965A50"/>
</g>
<defs>
<clipPath id="clip0">
<rect width="70" height="61" fill="white" transform="translate(131 15)"/>
</clipPath>
<clipPath id="clip1">
<rect width="66" height="67" fill="white" transform="translate(168)"/>
</clipPath>
</defs>
</svg>
