<svg id="Capa_1" enable-background="new 0 0 512 512" height="512" viewBox="0 0 512 512" width="512" xmlns="http://www.w3.org/2000/svg"><g><path d="m106.546 378.082c4.143 0 7.5-3.357 7.5-7.5v-82.35c0-4.475-2.983-8.325-7.257-9.364-4.573-1.108-9.212 1.227-11.029 5.557l-19.793 47.058c-2.637 6.273-9.846 9.211-16.119 6.575l-7.564-3.182c-.39-.164-.577-.456-.665-.672s-.158-.554.005-.943l27.451-65.27c.455-1.083 1.007-2.133 1.642-3.121l26.25-40.937c5.119-7.983 5.234-18.372.292-26.467l-93.357-152.91c-2.159-3.536-6.775-4.651-10.31-2.493s-4.651 6.774-2.493 10.31l93.356 152.91c1.971 3.228 1.925 7.37-.116 10.553l-26.248 40.934c-1.099 1.712-2.055 3.532-2.843 5.407l-27.45 65.268c-1.682 3.997-1.705 8.409-.067 12.425 1.638 4.015 4.741 7.151 8.738 8.832l7.565 3.182c6.724 2.828 14.146 2.867 20.901.113 6.755-2.755 12.032-7.976 14.859-14.7l9.252-21.997v55.282c.001 4.143 3.358 7.5 7.5 7.5z"/><path d="m510.9 52.369c2.158-3.535 1.042-8.15-2.493-10.31-3.534-2.158-8.15-1.043-10.31 2.493l-93.36 152.91c-4.943 8.099-4.825 18.488.298 26.466l26.245 40.932c.645 1.007 1.196 2.056 1.646 3.126l27.449 65.268c.265.631-.03 1.359-.65 1.62l-7.571 3.181c-3.037 1.274-6.384 1.293-9.427.053-3.042-1.24-5.419-3.593-6.693-6.626l-19.807-47.098c-1.84-4.309-6.483-6.624-11.042-5.507-4.261 1.051-7.235 4.896-7.235 9.353v139.4c0 6.176-4.765 11.424-10.619 11.697-6.366.331-11.74-4.755-11.74-11.168v-67.801c0-4.143-3.357-7.5-7.5-7.5s-7.5 3.357-7.5 7.5v84.491c0 3.088-1.231 5.963-3.467 8.098-2.233 2.13-5.171 3.21-8.257 3.081-5.866-.28-10.64-5.528-10.64-11.699v-97.229c0-4.143-3.357-7.5-7.5-7.5s-7.5 3.357-7.5 7.5v75.049c0 6.414-5.353 11.48-11.737 11.168-5.86-.273-10.628-5.521-10.628-11.698v-74.519c0-.321-.027-.636-.066-.947l57.358-57.358c24.806-24.807 29.976-63.105 12.574-93.135-2.076-3.584-6.667-4.805-10.25-2.729-3.584 2.077-4.806 6.666-2.728 10.25 13.999 24.156 9.804 55.001-10.203 75.007l-77.096 77.096c-8.025 8.027-20.96 7.942-28.9 0l-77.096-77.096c-24.107-24.106-24.529-63.195-.941-87.135 21.333-21.651 55.815-24.38 80.208-6.345 7.346 5.432 17.215 5.432 24.56 0 19.718-14.579 46.357-16.109 67.752-3.42 3.561 2.113 8.163.939 10.276-2.624 2.113-3.562.938-8.163-2.624-10.276-7.622-4.522-15.795-7.595-24.157-9.255l65.933-106.73c2.177-3.523 1.085-8.145-2.439-10.322-3.523-2.178-8.145-1.086-10.322 2.439l-69.92 113.184c-15.328.39-30.509 5.399-43.416 14.944-2.012 1.486-4.713 1.486-6.725 0-12.596-9.314-27.762-14.467-43.373-14.874l-69.966-113.254c-2.176-3.523-6.8-4.616-10.322-2.439-3.524 2.177-4.616 6.799-2.439 10.322l65.966 106.783c-14.993 2.949-28.838 10.336-39.679 21.339-29.349 29.788-28.892 78.358 1.02 108.27l57.358 57.358c-.039.311-.066.625-.066.947v74.519c0 6.177-4.768 11.425-10.633 11.699-3.099.151-6.033-.943-8.266-3.073-2.235-2.132-3.467-5.007-3.467-8.096v-75.049c0-4.143-3.357-7.5-7.5-7.5s-7.5 3.357-7.5 7.5v97.229c0 6.171-4.772 11.419-10.632 11.698-3.115.152-6.032-.95-8.265-3.08-2.235-2.135-3.467-5.01-3.467-8.098v-84.491c0-4.143-3.357-7.5-7.5-7.5s-7.5 3.357-7.5 7.5v67.801c0 3.084-1.229 5.956-3.461 8.086-2.234 2.133-5.18 3.234-8.277 3.082-5.856-.273-10.621-5.521-10.621-11.697v-22.051c0-4.143-3.357-7.5-7.5-7.5s-7.5 3.357-7.5 7.5v22.051c0 14.308 10.946 26.027 24.922 26.682 4.703.211 9.245-.785 13.285-2.883 1.222 4.678 3.724 8.991 7.263 12.369 4.922 4.697 11.291 7.243 18.061 7.243 14.217 0 25.403-11.319 26.151-25.216 3.835 1.823 8.078 2.688 12.478 2.477 13.867-.648 24.754-12.19 24.925-26.346 3.824 1.811 8.062 2.671 12.435 2.456 6.849-.321 12.966-3.302 17.429-7.938 4.463 4.636 10.579 7.617 17.425 7.937 4.373.211 8.615-.645 12.439-2.455.171 14.154 11.058 25.697 24.92 26.345 4.395.209 8.647-.651 12.483-2.476.732 13.608 11.399 24.542 24.892 25.186 12.778.59 23.53-7.894 26.583-19.583 4.04 2.098 8.586 3.097 13.287 2.883 13.974-.654 24.92-12.374 24.92-26.682v-112.344l9.256 22.01c5.831 13.879 21.872 20.423 35.758 14.59l7.577-3.183c8.244-3.472 12.13-13.009 8.662-21.26l-27.446-65.262c-.777-1.853-1.732-3.671-2.844-5.408l-26.253-40.944c-2.043-3.181-2.09-7.322-.119-10.55zm-262.4 345.36c0 6.176-4.77 11.424-10.636 11.699-3.09.146-6.028-.942-8.26-3.07-2.235-2.132-3.467-5.008-3.467-8.098v-37.174c3.101 2.552 8.983 11.514 22.362 14.384v22.259zm37.362.532c0 3.09-1.231 5.966-3.467 8.098-2.229 2.127-5.159 3.219-8.265 3.069-5.861-.274-10.631-5.522-10.631-11.698v-22.259c13.424-2.879 19.222-11.8 22.362-14.384v37.174z"/><path d="m256 326.664c4.143 0 7.5-3.357 7.5-7.5v-6.967c14.147-.445 25.519-12.084 25.519-26.337 0-14.534-11.824-26.359-26.358-26.359h-13.322c-6.263 0-11.358-5.096-11.358-11.358 0-5.98 4.648-10.885 10.519-11.317v3.703c0 4.143 3.357 7.5 7.5 7.5s7.5-3.357 7.5-7.5v-3.745h10.148c4.143 0 7.5-3.357 7.5-7.5s-3.357-7.5-7.5-7.5h-10.148v-6.944c0-4.143-3.357-7.5-7.5-7.5s-7.5 3.357-7.5 7.5v6.966c-14.147.445-25.519 12.085-25.519 26.338 0 14.534 11.824 26.358 26.358 26.358h13.322c6.263 0 11.358 5.096 11.358 11.359 0 5.979-4.648 10.884-10.52 11.316v-3.702c0-4.143-3.357-7.5-7.5-7.5s-7.5 3.357-7.5 7.5v3.744h-10.148c-4.143 0-7.5 3.357-7.5 7.5s3.357 7.5 7.5 7.5h10.149v6.945c0 4.143 3.357 7.5 7.5 7.5z"/></g></svg>